<?xml version="1.0" standalone="no"?>
<!DOCTYPE svg PUBLIC "-//W3C//DTD SVG 20010904//EN"
 "http://www.w3.org/TR/2001/REC-SVG-20010904/DTD/svg10.dtd">
<svg version="1.0" xmlns="http://www.w3.org/2000/svg"
 width="120.000000pt" height="80.000000pt" viewBox="0 0 180.000000 80.000000"
 preserveAspectRatio="xMidYMid meet">
<metadata>
Created by potrace 1.16, written by Peter Selinger 2001-2019
</metadata>
<g transform="translate(0.000000,80.000000) scale(0.100000,-0.100000)"
fill="#000000" stroke="none">
<path d="M745 770 c-247 -39 -425 -166 -425 -306 0 -11 12 -43 26 -72 76 -154
394 -252 686 -212 267 36 438 151 438 295 0 125 -128 227 -350 280 -80 19
-294 27 -375 15z m308 -155 c4 -8 2 -17 -3 -20 -6 -4 -10 -85 -10 -194 0 -180
-1 -189 -20 -194 -18 -5 -20 0 -20 59 l0 64 -45 0 c-51 0 -61 -19 -20 -38 14
-6 25 -19 25 -27 0 -8 -11 -21 -25 -27 -14 -6 -25 -17 -25 -25 0 -7 -9 -13
-20 -13 -11 0 -20 6 -20 13 0 7 -10 17 -22 22 -33 14 -35 42 -4 56 42 20 32
39 -19 39 l-45 0 0 -61 c0 -57 -1 -60 -22 -57 -21 3 -23 10 -26 63 -4 78 3
105 28 105 11 0 20 -4 20 -10 0 -5 20 -10 45 -10 25 0 45 5 45 10 0 6 9 10 20
10 11 0 20 -4 20 -10 0 -5 20 -10 45 -10 38 0 45 3 45 20 0 18 -8 20 -132 22
l-133 3 -3 71 c-3 70 -4 72 -33 84 l-30 13 21 21 c24 25 97 29 123 7 19 -15 6
-51 -18 -51 -12 0 -15 -14 -15 -60 l0 -60 110 0 110 0 0 76 c0 60 -4 79 -17
89 -9 7 -13 17 -9 23 11 17 73 15 79 -3z m217 -12 c17 -15 20 -30 20 -105 l0
-88 56 0 c73 0 70 -24 -4 -28 l-52 -3 0 -43 c0 -40 -11 -56 -36 -56 -2 0 -4
43 -4 95 l0 95 -60 0 c-47 0 -60 3 -60 15 0 12 13 15 60 15 l60 0 0 40 c0 29
-5 43 -20 52 -11 7 -20 16 -20 20 0 15 40 8 60 -9z m-732 -106 c3 -26 5 -27
63 -27 l59 0 0 -120 c0 -66 -3 -120 -6 -120 -3 0 -14 5 -25 10 -17 10 -19 22
-19 110 l0 100 -55 0 -55 0 0 41 c0 33 3 40 18 37 10 -2 18 -14 20 -31z"/>
<path d="M47 93 c-13 -13 -7 -61 9 -67 29 -11 1674 -7 1695 4 21 12 25 40 7
58 -9 9 -213 12 -858 12 -466 0 -850 -3 -853 -7z m1663 -33 c0 -7 -277 -10
-810 -10 -533 0 -810 3 -810 10 0 7 277 10 810 10 533 0 810 -3 810 -10z"/>
</g>
</svg>
